<svg width="60" height="60" viewBox="0 0 60 60" fill="none" xmlns="http://www.w3.org/2000/svg">
<ellipse cx="30" cy="29.935" rx="29.2969" ry="15.4037" fill="url(#paint0_radial_652_665)"/>
<ellipse cx="30.0001" cy="29.9351" rx="28.1525" ry="14.2593" fill="#6181B6"/>
<path fill-rule="evenodd" clip-rule="evenodd" d="M35.6997 34.5584L37.0959 27.3715C37.4163 25.7465 37.1417 24.5334 36.3177 23.7781C35.5166 23.0457 34.1433 22.6794 32.1292 22.6794H29.703L30.3897 19.1089C30.4126 18.9716 30.3897 18.8342 30.2981 18.7198C30.2066 18.6053 30.0921 18.5596 29.9548 18.5596H26.6131C26.3842 18.5596 26.2011 18.7198 26.1554 18.9258L24.6676 26.5475C24.5303 25.6778 24.2099 24.9454 23.6605 24.3503C22.6763 23.2288 21.1428 22.6566 19.06 22.6566H12.6284C12.3996 22.6566 12.2164 22.8168 12.1707 23.0228L9.17232 38.4952C9.14943 38.6325 9.17232 38.7698 9.26387 38.8843C9.35542 38.9987 9.46986 39.0445 9.60719 39.0445H12.9718C13.2006 39.0445 13.3837 38.8843 13.4295 38.6783L14.1619 34.9475H16.6568C17.9614 34.9475 19.0829 34.8102 19.9298 34.5355C20.8224 34.238 21.6235 33.7573 22.333 33.0936C22.9052 32.5671 23.3859 31.972 23.7521 31.3312L23.157 34.4211C23.1341 34.5584 23.157 34.6957 23.2486 34.8102C23.3401 34.9246 23.4545 34.9704 23.5919 34.9704H26.9335C27.1624 34.9704 27.3455 34.8102 27.3913 34.6042L29.0393 26.1356H31.3281C32.3123 26.1356 32.5869 26.3187 32.6785 26.4102C32.7471 26.4789 32.8845 26.7535 32.7243 27.6004L31.3967 34.444C31.3739 34.5813 31.3967 34.7186 31.4883 34.8331C31.5799 34.9475 31.6943 34.9933 31.8316 34.9933H35.2648C35.4708 34.9246 35.6539 34.7644 35.6997 34.5584V34.5584ZM20.2273 28.6075C20.0213 29.6832 19.6322 30.4614 19.06 30.8963C18.4878 31.3312 17.5494 31.5601 16.3134 31.5601H14.8257L15.9014 26.0211H17.8241C19.2431 26.0211 19.8153 26.3187 20.0442 26.5704C20.3418 26.9366 20.4104 27.6462 20.2273 28.6075V28.6075Z" fill="white"/>
<path fill-rule="evenodd" clip-rule="evenodd" d="M49.9817 24.3505C48.9975 23.2289 47.464 22.6567 45.3812 22.6567H38.9038C38.6749 22.6567 38.4918 22.817 38.4461 23.0229L35.4477 38.4725C35.4248 38.6098 35.4477 38.7471 35.5393 38.8616C35.6308 38.976 35.7453 39.0218 35.8826 39.0218H39.2471C39.476 39.0218 39.6591 38.8616 39.7049 38.6556L40.4373 34.9248H42.9321C44.2368 34.9248 45.3583 34.7875 46.2052 34.5128C47.0978 34.2153 47.8989 33.7346 48.6084 33.0709C49.2035 32.5215 49.707 31.9036 50.0733 31.2398C50.4395 30.576 50.7141 29.8436 50.8743 29.0425C51.2634 27.0513 50.9659 25.4949 49.9817 24.3505V24.3505ZM46.4798 28.6077C46.2738 29.6834 45.8847 30.4616 45.3125 30.8965C44.7403 31.3314 43.8019 31.5602 42.5659 31.5602H41.0782L42.1539 26.0213H44.0765C45.4956 26.0213 46.0678 26.3188 46.2967 26.5706C46.6171 26.9368 46.6858 27.6464 46.4798 28.6077V28.6077Z" fill="white"/>
<path fill-rule="evenodd" clip-rule="evenodd" d="M17.8229 25.5638C19.1046 25.5638 19.9515 25.7927 20.3864 26.2733C20.8212 26.754 20.9128 27.5551 20.6839 28.6995C20.455 29.8896 19.9973 30.7594 19.3335 31.2629C18.6697 31.7665 17.6627 32.0182 16.3123 32.0182H14.2752L15.5341 25.5638H17.8229V25.5638ZM9.62891 38.5643H12.9935L13.7946 34.4673H16.6785C17.9602 34.4673 18.9902 34.33 19.8141 34.0553C20.6381 33.7806 21.3705 33.3458 22.0572 32.7049C22.6294 32.1785 23.0872 31.6063 23.4305 30.9883C23.7738 30.3703 24.0256 29.6837 24.1629 28.9283C24.5291 27.0973 24.2545 25.6782 23.3618 24.6483C22.4692 23.6183 21.0501 23.1147 19.1046 23.1147H12.6273L9.62891 38.5643V38.5643Z" fill="#000004"/>
<path fill-rule="evenodd" clip-rule="evenodd" d="M26.6351 19.0176H29.9767L29.1757 23.1146H32.1511C34.028 23.1146 35.3097 23.435 36.0192 24.0988C36.7288 24.7625 36.9348 25.8154 36.6601 27.2802L35.2639 34.4671H31.8765L33.204 27.6235C33.3642 26.8453 33.2955 26.3189 33.0438 26.0443C32.792 25.7696 32.2198 25.6094 31.3729 25.6094H28.695L26.9784 34.4671H23.6367L26.6351 19.0176V19.0176Z" fill="#000004"/>
<path fill-rule="evenodd" clip-rule="evenodd" d="M44.0748 25.5638C45.3566 25.5638 46.2034 25.7927 46.6383 26.2733C47.0732 26.754 47.1647 27.5551 46.9359 28.6995C46.707 29.8896 46.2492 30.7594 45.5855 31.2629C44.9217 31.7665 43.9146 32.0182 42.5642 32.0182H40.5272L41.786 25.5638H44.0748V25.5638ZM35.8809 38.5643H39.2454L40.0465 34.4673H42.9304C44.2122 34.4673 45.2421 34.33 46.0661 34.0553C46.8901 33.7806 47.6225 33.3458 48.3091 32.7049C48.8813 32.1785 49.3391 31.6063 49.6824 30.9883C50.0258 30.3703 50.2775 29.6837 50.4149 28.9283C50.7811 27.0973 50.5064 25.6782 49.6138 24.6483C48.7211 23.6183 47.3021 23.1147 45.3566 23.1147H38.8792L35.8809 38.5643V38.5643Z" fill="#000004"/>
<defs>
<radialGradient id="paint0_radial_652_665" cx="0" cy="0" r="1" gradientUnits="userSpaceOnUse" gradientTransform="translate(18.2931 19.9484) scale(83.097 43.6909)">
<stop stop-color="white"/>
<stop offset="0.5" stop-color="#4C6B97"/>
<stop offset="1" stop-color="#231F20"/>
</radialGradient>
</defs>
</svg>
