<svg width="60" height="60" viewBox="0 0 60 60" fill="none" xmlns="http://www.w3.org/2000/svg">
<path d="M20.0781 60C25.5981 60 30.0781 55.52 30.0781 50V40H20.0781C14.5581 40 10.0781 44.48 10.0781 50C10.0781 55.52 14.5581 60 20.0781 60Z" fill="#0ACF83"/>
<path d="M10.0781 30C10.0781 24.48 14.5581 20 20.0781 20H30.0781V40H20.0781C14.5581 40 10.0781 35.52 10.0781 30Z" fill="#A259FF"/>
<path d="M10.0781 10C10.0781 4.48 14.5581 0 20.0781 0H30.0781V20H20.0781C14.5581 20 10.0781 15.52 10.0781 10Z" fill="#F24E1E"/>
<path d="M30.0781 0H40.0781C45.5981 0 50.0781 4.48 50.0781 10C50.0781 15.52 45.5981 20 40.0781 20H30.0781V0Z" fill="#FF7262"/>
<path d="M50.0781 30C50.0781 35.52 45.5981 40 40.0781 40C34.5581 40 30.0781 35.52 30.0781 30C30.0781 24.48 34.5581 20 40.0781 20C45.5981 20 50.0781 24.48 50.0781 30Z" fill="#1ABCFE"/>
</svg>
