<svg width="76" height="19" viewBox="0 0 76 19" fill="none" xmlns="http://www.w3.org/2000/svg">
<path d="M73.0198 5.07643C73.0198 5.40756 72.937 6.19399 72.937 6.52512C72.937 8.0152 73.5165 8.59467 74.6755 8.67746C75.4619 8.76024 76 9.21554 76 9.96058C76 10.6642 75.5033 11.1609 74.6755 11.2437C73.5579 11.3265 72.937 11.8646 72.937 13.396C72.937 13.7686 73.0198 14.555 73.0198 14.8447C73.0198 16.8729 72.0678 18.156 68.8807 18.9011C68.0529 19.108 67.3906 18.5699 67.3906 17.7835C67.3906 17.1626 67.8459 16.7901 68.1357 16.7073C69.7499 16.1279 70.0397 15.5484 70.0397 14.3894C70.0397 13.9755 69.9569 13.2719 69.9569 12.8166C69.9569 11.2851 70.7433 10.4573 72.1506 9.96058C70.7433 9.50528 69.9569 8.67746 69.9569 7.10459C69.9569 6.64929 70.0397 5.94564 70.0397 5.53173C70.0397 4.37278 69.7499 3.7933 68.1357 3.21382C67.8045 3.08965 67.3906 2.75852 67.3906 2.13765C67.3906 1.35122 68.0529 0.854529 68.8807 1.02009C72.0678 1.76513 73.0198 3.04826 73.0198 5.07643Z" fill="#00C2FF"/>
<path d="M2.76923 14.9021C2.76923 14.5702 2.84615 13.7819 2.84615 13.45C2.84615 11.9564 2.30769 11.3755 1.23077 11.2926C0.5 11.2096 0 10.7532 0 10.0064C0 9.30106 0.461539 8.80319 1.23077 8.72021C2.26923 8.63723 2.84615 8.09787 2.84615 6.56276C2.84615 6.18935 2.76923 5.40105 2.76923 5.11062C2.76923 3.07764 3.65385 1.79147 6.61539 1.04465C7.38462 0.837207 8 1.37657 8 2.16487C8 2.78721 7.57692 3.16062 7.30769 3.2436C5.80769 3.82445 5.53846 4.4053 5.53846 5.56701C5.53846 5.9819 5.61539 6.68722 5.61539 7.14361C5.61539 8.67872 4.88462 9.50851 3.57692 10.0064C4.88462 10.4628 5.61539 11.2926 5.61539 12.8692C5.61539 13.3255 5.53846 14.0309 5.53846 14.4458C5.53846 15.6075 5.80769 16.1883 7.30769 16.7692C7.61538 16.8936 8 17.2256 8 17.8479C8 18.6362 7.38462 19.1341 6.61539 18.9681C3.65385 18.2213 2.76923 16.9351 2.76923 14.9021Z" fill="#00C2FF"/>
<path d="M16.5841 13.9854H16.7747L19.7288 3.3125H22.2065V4.36074L18.3947 16.6537H14.9641L11.1523 4.36074V3.3125H13.63L16.5841 13.9854ZM26.2088 3.3125V6.93368H29.83C31.45 6.93368 32.5935 8.07721 32.5935 9.50662V14.0807C32.5935 15.5102 31.45 16.6537 29.83 16.6537H23.8265V3.3125H26.2088ZM30.2112 13.6996V9.8878C30.2112 9.31603 29.83 8.93486 29.1629 8.93486H26.2088V14.6525H29.1629C29.83 14.6525 30.2112 14.2713 30.2112 13.6996ZM34.7853 16.6537V3.3125H41.5512C43.4571 3.3125 44.6959 4.55132 44.6959 6.26662V13.6996C44.6959 15.4149 43.4571 16.6537 41.5512 16.6537H34.7853ZM42.2182 13.3184V6.6478C42.2182 5.98074 41.6465 5.40897 40.8841 5.40897H37.2629V14.5572H40.8841C41.6465 14.5572 42.2182 13.9854 42.2182 13.3184ZM55.083 9.31603V12.7466H48.8888V13.6996C48.8888 14.2713 49.27 14.6525 49.9371 14.6525H54.7018V16.6537H49.27C47.65 16.6537 46.5065 15.5102 46.5065 14.0807V9.31603C46.5065 7.88662 47.65 6.74309 49.27 6.74309H52.3194C53.9394 6.74309 55.083 7.88662 55.083 9.31603ZM48.8888 9.69721V10.7454H52.7006V9.69721C52.7006 9.12544 52.3194 8.74427 51.6524 8.74427H49.9371C49.27 8.74427 48.8888 9.12544 48.8888 9.69721ZM59.3712 16.6537L56.2265 7.88662V6.93368H58.6088L60.7053 14.176H60.8959L62.9924 6.93368H65.3747V7.88662L62.23 16.6537H59.3712Z" fill="#00C2FF"/>
</svg>
