<svg width="60" height="60" viewBox="0 0 60 60" fill="none" xmlns="http://www.w3.org/2000/svg">
<path fill-rule="evenodd" clip-rule="evenodd" d="M8.3303 54.0022L3.51562 0H56.4206L51.6008 53.9937L29.9357 60L8.3303 54.0022Z" fill="#E44D26"/>
<path fill-rule="evenodd" clip-rule="evenodd" d="M29.9688 55.4091L47.4752 50.5556L51.594 4.41553H29.9688V55.4091Z" fill="#F16529"/>
<path d="M21.2049 24.444H29.969V31.0671H15.1477L13.3613 11.0386H29.969V17.6618H20.5996L21.2049 24.444Z" fill="#EBEBEB"/>
<path d="M29.94 41.6527L29.969 41.645V48.5359L29.9386 48.5443L16.3715 44.778L15.4436 34.3787H22.0922L22.5638 39.661L29.94 41.6527Z" fill="#EBEBEB"/>
<path d="M29.9453 11.0386H46.5364L45.9434 17.6618H29.9453V11.0386Z" fill="white"/>
<path d="M29.9453 31.0671V24.444H45.3407L45.1791 26.2225L43.5231 44.778L29.9453 48.5411V41.6506L37.3322 39.6568L38.101 31.0671H29.9453Z" fill="white"/>
</svg>
