<svg width="60" height="60" viewBox="0 0 60 60" fill="none" xmlns="http://www.w3.org/2000/svg">
<path fill-rule="evenodd" clip-rule="evenodd" d="M8.33044 54.0019L3.51562 0H56.4228L51.6028 53.9931L29.9372 60L8.33044 54.0019Z" fill="#0071BC"/>
<path fill-rule="evenodd" clip-rule="evenodd" d="M30.0137 55.4055L47.4988 50.5953L51.5956 4.49707H30.0137V55.4055Z" fill="#29ABE2"/>
<path fill-rule="evenodd" clip-rule="evenodd" d="M14.5371 24.3375L15.1171 30.9509L30.014 24.3375V17.7134L14.5371 24.3375Z" fill="#B3B3B3"/>
<path fill-rule="evenodd" clip-rule="evenodd" d="M46.5125 10.6421L30.0137 17.713V24.3371L45.9436 17.2555L46.5125 10.6421Z" fill="#E6E6E6"/>
<path fill-rule="evenodd" clip-rule="evenodd" d="M30.014 41.6411L29.9628 41.6488L22.575 39.6648L22.0923 34.3896H15.4434L16.3712 44.7819L29.9613 48.5448L30.014 48.5324V41.6411Z" fill="#E6E6E6"/>
<path fill-rule="evenodd" clip-rule="evenodd" d="M30.0137 24.3374V30.9508H38.1021L37.367 39.5973L30.0137 41.6469V48.5377L43.5587 44.7748L45.3423 24.3374H30.0137Z" fill="white"/>
<path fill-rule="evenodd" clip-rule="evenodd" d="M30.014 24.3374H14.5371L15.1171 30.9508H30.014V24.3374Z" fill="#E6E6E6"/>
<path fill-rule="evenodd" clip-rule="evenodd" d="M30.0141 17.2555V10.6421H29.9469H13.3613L13.9482 17.2555H30.0141Z" fill="#E6E6E6"/>
<path fill-rule="evenodd" clip-rule="evenodd" d="M30.0137 10.6421V17.1726V17.2555H45.9436L46.5125 10.6421H30.0137Z" fill="white"/>
</svg>
