<svg width="60" height="60" viewBox="0 0 60 60" fill="none" xmlns="http://www.w3.org/2000/svg">
<path d="M30 11.9531C22 11.9531 17 15.9531 15 23.9531C18 19.9531 21.5 18.4531 25.5 19.4531C27.7822 20.0237 29.4134 21.6793 31.219 23.5121C34.1603 26.4977 37.5646 29.9531 45 29.9531C53 29.9531 58 25.9531 60 17.9531C57 21.9531 53.5 23.4531 49.5 22.4531C47.2178 21.8826 45.5866 20.2269 43.781 18.3941C40.8397 15.4086 37.4354 11.9531 30 11.9531ZM15 29.9531C7 29.9531 2 33.9531 0 41.9531C3 37.9531 6.5 36.4531 10.5 37.4531C12.7822 38.0237 14.4134 39.6793 16.219 41.5121C19.1603 44.4977 22.5646 47.9531 30 47.9531C38 47.9531 43 43.9531 45 35.9531C42 39.9531 38.5 41.4531 34.5 40.4531C32.2178 39.8826 30.5866 38.2269 28.781 36.3941C25.8397 33.4086 22.4354 29.9531 15 29.9531Z" fill="url(#paint0_linear_652_663)"/>
<defs>
<linearGradient id="paint0_linear_652_663" x1="-1.66667" y1="23.4731" x2="50.1532" y2="53.3512" gradientUnits="userSpaceOnUse">
<stop stop-color="#2298BD"/>
<stop offset="1" stop-color="#0ED7B5"/>
</linearGradient>
</defs>
</svg>
