<svg width="60" height="60" viewBox="0 0 60 60" fill="none" xmlns="http://www.w3.org/2000/svg">
<path d="M37.3433 58.1714L37.9186 48.5852L39.5071 45.8736C39.5071 45.8736 35.8916 47.3526 29.8387 47.3526C23.7857 47.3526 20.225 45.9009 20.225 45.9009L22.0053 48.8589L22.6351 58.1714C22.6351 59.1698 25.9276 59.9791 29.9892 59.9791C34.0507 59.9791 37.3433 59.1698 37.3433 58.1714ZM35.5285 13.4052L36.7361 8.63222L43.4231 1.59589L41.6606 0.0947266L34.581 7.59017L33.179 13.2926C32.1238 13.2572 31.0681 13.2397 30.0122 13.2399C22.5561 13.2399 16.5117 14.0897 16.5117 15.1377C16.5117 16.1858 22.5561 17.0354 30.0122 17.0354C37.4683 17.0354 43.5126 16.1858 43.5126 15.1377C43.5126 14.3659 40.2344 13.7017 35.5285 13.4052Z" fill="#D34A47"/>
<path d="M34.8264 16.0779C34.8264 16.0779 34.5649 16.1366 33.7956 16.1398C33.0261 16.143 32.4797 16.1349 32.2621 15.9366C32.2036 15.8834 32.1716 15.7777 32.1719 15.7062C32.1725 15.57 32.2692 15.4897 32.3924 15.4395L32.5089 15.6222C32.4582 15.6397 32.4293 15.6604 32.4292 15.6824C32.4287 15.7859 33.2159 15.8567 33.8181 15.8491C34.4203 15.8416 35.1479 15.792 35.1486 15.6901C35.1486 15.6592 35.0935 15.6302 34.9978 15.6073L35.1138 15.4258C35.2698 15.4742 35.406 15.5678 35.4057 15.7298C35.4042 16.0052 35.0538 16.0471 34.8264 16.0779Z" fill="white"/>
<path d="M43.4113 1.6095C43.5794 1.41529 43.3243 0.918545 42.8414 0.500135C42.3583 0.0819372 41.8304 -0.0997589 41.662 0.094446C41.4937 0.288651 41.749 0.7854 42.2321 1.2036C42.715 1.6219 43.2431 1.80381 43.4113 1.6095ZM37.023 34.7559C36.8645 33.2311 40.3582 31.0227 39.4616 30.952C37.5314 31.0624 36.5708 33.214 35.5996 35.4675C35.2438 36.2934 34.0261 39.8152 33.2274 39.3816C32.429 38.9483 34.2626 36.0523 34.7765 34.3324C34.1835 34.7672 32.0088 36.4569 31.4483 34.8745C30.5472 35.6398 28.6218 36.0544 28.839 34.0442C28.3597 34.8933 27.2838 36.0788 25.9924 35.5861C24.2965 34.9394 26.9751 29.5372 27.6412 29.8097C28.3073 30.0821 27.5068 31.3128 27.2971 31.7907C26.8359 32.8424 26.3033 34.1645 26.6591 34.4351C27.2688 34.8988 28.9278 32.681 28.9647 32.6323C29.2749 32.2223 30.1589 29.5405 30.8714 29.8484C31.5839 30.1564 29.0943 33.6973 30.0252 34.4C30.2129 34.5419 30.981 34.3126 31.4483 33.807C31.7506 33.48 31.6466 32.7556 32.6545 30.3523C33.6623 27.949 34.5605 24.956 35.2516 25.184C35.9428 25.4119 35.3731 26.9481 35.1252 27.5207C33.9616 30.2084 31.9496 34.6487 32.8985 34.3126C33.8474 33.9765 34.3415 33.9568 35.2706 32.8695C36.1998 31.7822 36.1569 29.9912 36.7762 30.0293C37.3957 30.0674 37.2917 30.6417 37.1415 31.0789C37.7511 30.3814 40.0309 28.9124 40.5812 30.3673C41.2332 32.0898 37.3195 34.5779 38.2953 34.451C39.2467 34.3273 40.7881 33.3511 41.4462 32.4635L43.2576 16.178C43.2576 16.178 41.4348 17.6865 29.8383 17.6865C18.2416 17.6865 16.6074 16.2094 16.6074 16.2094L18.1496 31.0742C18.9682 28.7476 20.9121 24.0418 23.9761 24.1997C25.3699 24.2716 27.2305 26.9554 25.6367 27.0463C24.9621 27.0847 24.8936 25.7067 24.0947 25.5043C23.5182 25.3583 22.7157 25.8269 22.197 26.3347C21.1625 27.3471 18.9378 31.3413 19.2317 33.3326C19.6063 35.8714 22.7351 32.4505 23.2645 31.4348C23.6373 30.7194 23.8892 28.5996 24.7046 28.822C25.5201 29.0444 24.6334 31.232 24.0423 33.1661C23.3783 35.3379 23.0292 37.6288 22.197 37.3653C21.3646 37.1019 22.7204 34.2983 22.6713 33.807C21.889 34.5288 20.4477 36.3562 18.6039 35.4517L19.5616 44.6826C19.5616 44.6826 22.1072 46.6939 29.7754 46.6939C37.4436 46.6939 40.0834 44.714 40.0834 44.714L41.2727 34.0224C40.2997 34.9699 37.2202 36.6525 37.023 34.7559Z" fill="#D34A47"/>
</svg>
