<svg width="60" height="60" viewBox="0 0 60 60" fill="none" xmlns="http://www.w3.org/2000/svg">
<g clip-path="url(#clip0_652_658)">
<path fill-rule="evenodd" clip-rule="evenodd" d="M0 0H60V60H0V0V0Z" fill="#F7DF1E"/>
<path fill-rule="evenodd" clip-rule="evenodd" d="M15.7755 50.1405L20.3671 47.3617C21.2529 48.9323 22.0587 50.2611 23.9916 50.2611C25.8443 50.2611 27.0124 49.5364 27.0124 46.7173V27.5459H32.6509V46.797C32.6509 52.637 29.2277 55.2952 24.2333 55.2952C19.7227 55.2952 17.1044 52.9591 15.7754 50.14" fill="black"/>
<path fill-rule="evenodd" clip-rule="evenodd" d="M35.7148 49.5364L40.3059 46.8782C41.5145 48.8519 43.0852 50.3017 45.8641 50.3017C48.2004 50.3017 49.6902 49.1336 49.6902 47.5226C49.6902 45.5893 48.1598 44.9046 45.5821 43.7773L44.1728 43.1727C40.1047 41.4412 37.4062 39.2663 37.4062 34.6748C37.4062 30.4458 40.6282 27.2236 45.6628 27.2236C49.2474 27.2236 51.825 28.4723 53.6775 31.7347L49.2874 34.5538C48.3207 32.8221 47.2739 32.1375 45.6629 32.1375C44.0116 32.1375 42.9644 33.1847 42.9644 34.5538C42.9644 36.2454 44.0116 36.9303 46.4279 37.9775L47.8374 38.5816C52.6303 40.6358 55.3288 42.7299 55.3288 47.442C55.3288 52.5171 51.3416 55.2958 45.985 55.2958C40.7492 55.2958 37.366 52.7989 35.7149 49.5364" fill="black"/>
</g>
<defs>
<clipPath id="clip0_652_658">
<rect width="60" height="60" fill="white"/>
</clipPath>
</defs>
</svg>
