<svg width="52" height="60" viewBox="0 0 52 60" fill="none" xmlns="http://www.w3.org/2000/svg">
<path fill-rule="evenodd" clip-rule="evenodd" d="M15.9798 36.7149C15.0353 37.3113 13.6122 38.2774 12.5113 39.3282C10.7039 41.0515 10.3257 43.4419 11.2791 44.0003C12.1611 44.5165 14.2202 43.9023 15.6938 42.2795C17.2404 40.5757 17.8783 38.4158 17.2195 35.9639C17.1421 36.0104 17.0662 36.0572 16.9916 36.1007L16.9932 36.104L16.8933 36.1612C16.5088 36.3929 16.1945 36.584 15.9798 36.7149ZM42.5224 35.9413C41.9874 37.1152 41.9605 37.493 42.123 37.6105C42.8994 37.3289 44.1838 36.6503 44.1939 34.8319C44.1955 34.5595 44.136 34.2673 44.0405 33.9619C43.2106 34.7039 42.7322 35.4807 42.5224 35.9413ZM50.8525 32.392C48.7786 32.148 47.1603 32.4417 45.9044 32.9699C46.137 33.5811 46.3158 34.2176 46.3409 34.8589C46.3992 36.2664 45.4397 37.308 44.4397 38.0516C43.8557 38.4851 43.2343 38.7741 42.7127 38.9486C42.2957 39.1262 41.7414 39.3097 41.3479 39.2287C40.4806 39.0507 40.0189 38.2729 40.609 36.557C40.9277 35.6284 41.847 34.2148 43.331 32.9972C42.9928 32.2942 42.6158 31.5779 42.4237 30.9198C42.045 29.6224 41.9307 28.8382 41.9307 28.8382C41.9307 28.8382 40.7075 31.3986 39.1294 33.7271C39.0384 33.8624 38.9476 33.9951 38.8566 34.1274C39.1666 34.8546 39.4107 35.6237 39.4438 36.3991C39.5019 37.8063 38.8984 38.8705 37.897 39.6124C37.3549 40.016 36.7766 40.2947 36.2804 40.4721C35.9631 40.612 35.3177 40.8421 34.4 40.904C33.8981 40.9387 33.4153 40.9073 33.1457 40.701C32.7746 40.418 32.7299 40.0687 32.9221 39.5915C33.0846 39.1865 34.3003 37.7854 35.3196 36.5586C35.6011 36.2198 35.8692 35.8736 36.1091 35.5531L36.1032 35.5394C36.1032 35.5394 36.2879 35.2988 36.5875 34.8788C36.215 34.069 35.7427 33.2259 35.5207 32.4613C35.142 31.164 35.0275 30.3796 35.0275 30.3796C35.0275 30.3796 33.7876 33.5889 32.4959 36.1507C31.4964 38.1348 30.8287 39.3372 30.5279 39.8641L30.5248 39.8852C30.5248 39.8852 30.4799 39.9621 30.4025 40.0825L30.3446 40.1801L30.343 40.1711C30.0077 40.671 29.2553 41.6507 28.5074 41.6507C26.4542 41.6507 27.208 37.4407 27.208 37.4407C27.208 37.4407 26.6077 39.0001 25.9311 40.3382C25.3801 41.4294 24.8779 42.3539 23.7798 42.3539C23.464 42.3539 22.9633 42.3447 22.5475 41.9456C21.6044 41.041 20.8833 38.7439 21.0247 36.9649C21.1453 35.4522 21.3763 34.4045 21.6921 33.5302C21.1289 33.8401 20.4778 34.2076 19.8148 34.6005L18.7956 35.2069L18.8285 35.2672C19.6716 36.914 19.8967 40.522 18.058 43.2915C16.2195 46.0626 12.7971 47.7485 9.46258 46.8123C8.38663 46.5096 6.76122 44.2624 8.16319 41.13C9.39981 38.3678 14.342 35.7563 15.6445 35.1046L16.002 34.9059C13.4052 32.6119 6.92067 29.5172 6.01189 24.7637C5.75555 23.4256 6.37691 20.2255 10.2686 16.5469C13.5419 13.4537 18.0954 11.0844 22.3017 9.5746C29.3684 7.03839 36.8349 8.53444 37.9836 13.0833C39.1129 17.5569 35.269 22.908 30.3461 24.8316C25.9506 26.5489 22.3165 26.2766 20.8236 25.7815C19.1265 25.2186 18.1311 24.088 17.8884 23.4498C17.7929 23.2 17.6288 22.7802 17.8884 22.6356C18.0477 22.5468 18.1116 22.568 18.5378 23.0435C18.9432 23.4951 20.5731 24.7069 23.6693 24.356C31.7943 23.4365 36.6886 17.0587 35.142 13.6267C34.059 11.2245 27.7966 10.1406 19.9727 14.0798C10.4219 18.8874 9.90356 22.8508 9.8217 24.356C9.59806 28.4968 14.8799 30.6749 17.7379 33.7544L17.848 33.8764C18.3828 33.5784 18.9477 33.2638 19.5018 32.9568C20.9428 32.1574 22.3017 31.4077 22.9348 31.0584C23.9407 29.5823 25.9817 27.9533 27.4554 27.9533C29.811 27.9533 29.002 31.3718 29.002 31.3718C29.002 31.3718 29.0497 31.2153 29.1137 31.2139C29.1807 31.212 29.4401 30.7635 30.1673 31.0313C30.9152 31.3084 30.7452 31.8383 30.7499 31.8925C30.7588 31.9977 29.8663 35.0367 29.4954 36.986C29.3178 37.9162 29.4206 38.5938 29.473 38.5938C29.546 38.5938 29.695 38.3574 29.8336 38.1031L29.8305 38.0955C29.8305 38.0955 29.9347 37.9029 30.1092 37.5567L30.1435 37.4843L30.145 37.4876C30.3507 37.0812 30.6396 36.4836 30.9733 35.743C31.6274 34.2876 34.123 28.6684 34.3346 28.0468C34.5461 27.4252 34.6564 26.7825 34.7608 26.5069C34.8636 26.2315 35.7457 26.0237 36.7766 26.0313C37.8077 26.0389 37.9123 26.4829 37.9194 26.5748C37.9269 26.6664 37.4292 27.8994 37.3145 28.7708C37.2013 29.6423 37.3102 30.0771 37.404 30.8088C37.4652 31.2873 37.7615 31.8941 38.1119 32.5819C39.1787 30.8207 41.0558 27.4521 41.2362 26.5083C41.3597 25.8627 41.558 25.244 41.6624 24.9684C41.7666 24.693 42.6473 24.4854 43.6782 24.4928C44.7092 24.5004 44.8134 24.9444 44.821 25.0363C44.8285 25.1282 44.3292 26.3609 44.216 27.2325C44.1027 28.1024 44.2118 28.539 44.3054 29.2705C44.3861 29.8966 44.8656 30.7381 45.3412 31.6952C46.6387 31.0494 48.166 30.6161 49.9541 30.607C50.6945 30.6027 51.5543 30.6778 51.9984 30.8176V16.4172C51.9984 15.4013 51.4826 14.4651 50.6112 13.9579L27.3439 0.380523C26.4739 -0.126841 25.4085 -0.126841 24.5383 0.380523L1.33514 13.9514C0.464953 14.4587 0 15.3966 0 16.4109V43.5774C0 44.5917 0.467797 45.5296 1.33656 46.0367L24.5771 59.6182C25.4471 60.1273 26.5021 60.1273 27.3721 59.6182L50.6232 46.0367C51.4932 45.5279 52 44.5915 52 43.5774V32.5983C51.7049 32.5106 51.2728 32.4415 50.8525 32.392ZM25.821 30.9694C25.322 31.5338 24.4713 32.9892 24.0734 34.2074C23.2822 36.6261 23.6249 39.0842 24.1851 39.2318C24.8391 39.4047 25.912 36.1716 26.4258 34.9071C26.7477 34.1153 27.9994 30.6009 27.7251 30.1312C27.511 29.764 26.6242 30.0605 25.821 30.9694ZM34.8729 39.1217C34.8729 39.1217 34.7151 39.2724 34.7833 39.3145C34.8757 39.3702 35.0754 39.2978 35.293 39.1834C35.9084 38.7923 37.2895 37.8168 37.2925 36.3732C37.2925 36.3312 37.2909 36.2906 37.2881 36.2469C36.9677 36.6714 36.6726 37.0492 36.4179 37.3697C35.9828 37.916 34.8729 39.1217 34.8729 39.1217Z" fill="#8CC84B"/>
</svg>
