<svg width="60" height="60" viewBox="0 0 60 60" fill="none" xmlns="http://www.w3.org/2000/svg">
<g clip-path="url(#clip0_652_662)">
<path d="M4.24781 29.8829C4.24781 40.0302 10.1449 48.7995 18.6961 52.9551L6.46732 19.4498C5.04488 22.638 4.24781 26.1663 4.24781 29.8829ZM47.1902 28.5893C47.1902 25.421 46.0522 23.2268 45.0761 21.519C43.7766 19.4073 42.5585 17.619 42.5585 15.5073C42.5585 13.1507 44.3459 10.9571 46.8634 10.9571C46.9771 10.9571 47.0849 10.9712 47.1956 10.9776C42.6346 6.79902 36.558 4.24781 29.8839 4.24781C20.9278 4.24781 13.0483 8.84293 8.46439 15.8029C9.06585 15.821 9.63268 15.8337 10.1141 15.8337C12.7956 15.8337 16.9463 15.5083 16.9463 15.5083C18.3283 15.4268 18.4912 17.4566 17.1107 17.62C17.1107 17.62 15.722 17.7834 14.1766 17.8644L23.5122 45.6327L29.1224 28.8068L25.1283 17.8634C23.7478 17.7824 22.44 17.619 22.44 17.619C21.0585 17.538 21.2205 15.4259 22.602 15.5073C22.602 15.5073 26.8356 15.8327 29.3546 15.8327C32.0356 15.8327 36.1868 15.5073 36.1868 15.5073C37.5698 15.4259 37.7322 17.4556 36.3512 17.619C36.3512 17.619 34.9595 17.7824 33.4171 17.8634L42.6815 45.4215L45.2385 36.8766C46.3468 33.3307 47.1902 30.7839 47.1902 28.5893ZM30.3337 32.1254L22.642 54.4761C24.9385 55.1512 27.3673 55.5205 29.8839 55.5205C32.8693 55.5205 35.7322 55.0044 38.3971 54.0673C38.3283 53.9576 38.2659 53.841 38.2146 53.7141L30.3337 32.1254ZM52.3785 17.5834C52.4888 18.4 52.5512 19.2766 52.5512 20.2195C52.5512 22.821 52.0654 25.7454 50.602 29.402L42.7712 52.0424C50.3927 47.598 55.519 39.341 55.519 29.8834C55.5195 25.4263 54.381 21.2351 52.3785 17.5834ZM29.8839 0C13.4063 0 0 13.4054 0 29.8829C0 46.3624 13.4063 59.7673 29.8839 59.7673C46.361 59.7673 59.7693 46.3624 59.7693 29.8829C59.7688 13.4054 46.361 0 29.8839 0ZM29.8839 58.3976C14.162 58.3976 1.37024 45.6059 1.37024 29.8829C1.37024 14.161 14.1615 1.37024 29.8839 1.37024C45.6054 1.37024 58.3961 14.161 58.3961 29.8829C58.3961 45.6059 45.6054 58.3976 29.8839 58.3976Z" fill="#464342"/>
</g>
<defs>
<clipPath id="clip0_652_662">
<rect width="60" height="60" fill="white"/>
</clipPath>
</defs>
</svg>
