<svg width="14" height="14" viewBox="0 0 14 14" fill="none" xmlns="http://www.w3.org/2000/svg">
<path fill-rule="evenodd" clip-rule="evenodd" d="M11.4616 9.86889C10.1205 9.63388 8.78283 8.64893 7.97689 7.14448C7.02412 5.36593 7.09244 3.38034 8.01243 2.11951C8.10672 1.99028 8.20996 1.86867 8.32197 1.75567C8.53799 1.53773 8.47556 1.13107 8.17179 1.08143C7.97368 1.04907 7.77239 1.02608 7.5684 1.01296C7.43476 1.00437 7.29997 1 7.16414 1C3.75978 1 1 3.74226 1 7.125C1 10.5077 3.75978 13.25 7.16414 13.25C9.10139 13.25 10.8299 12.362 11.9599 10.9733C12.0883 10.8156 12.209 10.6513 12.3214 10.4812C12.4815 10.2387 12.2594 9.93082 11.9677 9.92155C11.7997 9.91621 11.6306 9.8985 11.4616 9.86889Z" stroke="#E0E0E0" stroke-width="1.5"/>
</svg>
